<svg width="113" height="87" viewBox="0 0 113 87" fill="none" xmlns="http://www.w3.org/2000/svg">
<path fill-rule="evenodd" clip-rule="evenodd" d="M56 0.248535C47.1634 0.248535 40 7.41198 40 16.2485C40 25.0851 47.1634 32.2485 56 32.2485C64.8366 32.2485 72 25.0851 72 16.2485C72 7.41198 64.8366 0.248535 56 0.248535ZM24.7164 31.3755C41.3715 31.3755 54.8731 44.8771 54.8731 61.5322V86.2486H39.8731V61.5322C39.8731 59.7585 39.5685 58.056 39.0086 56.4741L16.9757 78.507L6.3691 67.9004L27.6168 46.6527C26.678 46.4708 25.7083 46.3755 24.7164 46.3755H0V31.3755H24.7164ZM87.6567 31.3755C71.0016 31.3755 57.5 44.8771 57.5 61.5322V86.2486H72.5V61.5322C72.5 60.1428 72.687 58.797 73.0371 57.5187L96.0851 80.5667L106.692 69.9601L83.644 46.9124C84.9221 46.5624 86.2676 46.3755 87.6567 46.3755H112.373V31.3755H87.6567Z" fill="#345FB4"/>
</svg>
