<svg width="113" height="87" viewBox="0 0 113 87" fill="none" xmlns="http://www.w3.org/2000/svg">
<path fill-rule="evenodd" clip-rule="evenodd" d="M56 0.746094C47.1634 0.746094 40 7.90954 40 16.7461C40 25.5826 47.1634 32.7461 56 32.7461C64.8366 32.7461 72 25.5826 72 16.7461C72 7.90954 64.8366 0.746094 56 0.746094ZM24.7164 31.873C41.3715 31.873 54.8731 45.3747 54.8731 62.0298V86.7462H39.8731V62.0298C39.8731 60.2561 39.5685 58.5535 39.0086 56.9716L16.9757 79.0045L6.3691 68.3979L27.6168 47.1502C26.678 46.9683 25.7083 46.873 24.7164 46.873H0V31.873H24.7164ZM87.6567 31.873C71.0016 31.873 57.5 45.3747 57.5 62.0298V86.7462H72.5V62.0298C72.5 60.6403 72.687 59.2946 73.0371 58.0163L96.0851 81.0642L106.692 70.4576L83.644 47.4099C84.9221 47.0599 86.2676 46.873 87.6567 46.873H112.373V31.873H87.6567Z" fill="black"/>
</svg>
