<svg width="113" height="87" viewBox="0 0 113 87" fill="none" xmlns="http://www.w3.org/2000/svg">
<path fill-rule="evenodd" clip-rule="evenodd" d="M56 0.243652C47.1634 0.243652 40 7.4071 40 16.2437C40 25.0802 47.1634 32.2437 56 32.2437C64.8366 32.2437 72 25.0802 72 16.2437C72 7.4071 64.8366 0.243652 56 0.243652ZM24.7164 31.3706C41.3715 31.3706 54.8731 44.8722 54.8731 61.5273V86.2437H39.8731V61.5273C39.8731 59.7536 39.5685 58.0511 39.0086 56.4692L16.9757 78.5021L6.3691 67.8955L27.6168 46.6478C26.678 46.4659 25.7083 46.3706 24.7164 46.3706H0V31.3706H24.7164ZM87.6567 31.3706C71.0016 31.3706 57.5 44.8722 57.5 61.5273V86.2437H72.5V61.5273C72.5 60.1379 72.687 58.7921 73.0371 57.5138L96.0851 80.5618L106.692 69.9552L83.644 46.9075C84.9221 46.5575 86.2676 46.3706 87.6567 46.3706H112.373V31.3706H87.6567Z" fill="white"/>
</svg>
